<?xml version="1.0" encoding="utf-8"?>
<!-- Generator: Adobe Illustrator 16.0.0, SVG Export Plug-In . SVG Version: 6.00 Build 0)  -->
<!DOCTYPE svg PUBLIC "-//W3C//DTD SVG 1.1//EN" "http://www.w3.org/Graphics/SVG/1.1/DTD/svg11.dtd">
<svg version="1.1" id="Layer_2" xmlns="http://www.w3.org/2000/svg" xmlns:xlink="http://www.w3.org/1999/xlink" x="0px" y="0px"
	 width="458.785px" height="455.785px" viewBox="0 0 458.785 455.785" enable-background="new 0 0 458.785 455.785"
	 xml:space="preserve">
<g>
	<path fill="#FFFFFF" d="M43.86,222.784c0.178-1.597,0.429-3.19,0.523-4.792c0.57-9.81,3.453-19.054,6.899-28.151
		c1.015-2.68,1.144-2.63-1.078-4.416c-2.562-2.06-3.304-4.968-3.527-8.021c-0.042-0.562,0.745-1.504,1.353-1.736
		c1.853-0.703,3.816-1.121,5.802-0.469c1.339,0.439,2.107,0.02,2.574-1.312c1.024-2.911,2.425-5.59,4.742-7.744
		c1.13-1.051,0.75-3.125-0.64-4.45c-0.609-0.583-1.24-1.142-1.86-1.712c0.007-0.162,0.015-0.324,0.023-0.485
		c1.622-0.332,3.245-0.663,4.95-1.012c-0.496-1.377-1.041-2.894-1.586-4.411c0.121-0.153,0.241-0.304,0.362-0.456
		c1.725,0.599,3.451,1.198,5.276,1.832c0.067-0.309,0.213-0.606,0.181-0.884c-0.547-4.784,0.981-9.011,3.747-12.762
		c1.834-2.488,3.985-4.76,6.125-7.001c1.878-1.966,4.36-2.277,7.189-2.103c-3.891,6.259-6.065,12.771-5.185,20.018
		c0.12,0.056,0.241,0.111,0.361,0.167c0.49-0.863,0.983-1.727,1.471-2.591c0.221-0.392,0.432-0.79,0.652-1.181
		c1.038-1.85,1.289-1.893,2.94-0.4c0.495-0.8,0.922-1.631,1.487-2.353c0.364-0.464,0.932-0.768,1.409-1.144
		c0.319,0.413,0.706,0.791,0.942,1.246c0.411,0.789,0.729,1.627,1.155,2.604c1.616-2.048,3.107-3.992,4.671-5.878
		c0.361-0.438,0.964-0.675,1.456-1.005c0.255,0.536,0.631,1.05,0.739,1.615c0.202,1.052,0.247,2.134,0.357,3.203
		c0.143,0.073,0.286,0.146,0.428,0.218c0.996-1.54,1.967-3.097,2.995-4.615c1.013-1.496,1.641-3.344,3.624-4.089
		c0.264,0.566,0.523,1.123,0.837,1.794c1.582-1.706,3.104-3.348,4.625-4.99c0.153,0.068,0.306,0.136,0.459,0.204
		c0.354,1.887,0.708,3.774,1.062,5.661c0.214-0.015,0.429-0.029,0.644-0.044c0.092-2.518,0.184-5.036,0.276-7.554
		c0.155-0.01,0.31-0.022,0.463-0.034c1.937,2.711,1.371,6.792,4.797,8.951c0-0.942,0.186-1.771-0.034-2.473
		c-0.682-2.168-1.521-4.286-2.29-6.426c-0.147-0.409-0.254-0.831-0.419-1.378c4.224-0.301,5.46,2.771,6.785,5.738
		c0.124-0.05,0.248-0.1,0.371-0.151c-0.103-1.783-0.205-3.565-0.312-5.446c1.688,0.041,2.521,0.92,3.029,2.277
		c0.465,1.241,0.986,2.459,1.623,3.669c0.872-4.723,1.608-9.425,3.977-13.632c0.179-0.002,0.358-0.003,0.537-0.005
		c0.265,2.656,0.53,5.312,0.794,7.968c0.146,0.029,0.292,0.059,0.437,0.089c0.249-0.619,0.558-1.22,0.736-1.858
		c0.781-2.81,1.508-5.634,2.294-8.442c0.165-0.587,0.498-1.127,0.755-1.689c0.214,0.076,0.429,0.152,0.644,0.229
		c-0.297,1.11-0.377,2.344-0.929,3.31c-2.23,3.906-2.527,8.196-2.75,12.517c-0.121,2.34-0.187,4.683-0.288,7.022
		c-0.008,0.188-0.102,0.371-0.155,0.557c-0.167,0.002-0.334,0.005-0.501,0.007c-0.479-5.287-0.958-10.572-1.437-15.858
		c-0.164-0.026-0.328-0.053-0.492-0.079c-0.211,0.535-0.527,1.051-0.62,1.605c-0.667,4.034-1.276,8.077-1.937,12.111
		c-0.133,0.812-0.406,1.602-0.614,2.403c-0.129,0-0.259-0.001-0.387-0.002c-0.888-2.581-1.775-5.162-2.738-7.963
		c-1.285,2.444-0.302,5.441-2.588,7.311c-0.479-2.737-0.939-5.398-2.667-7.633c0.28,1.604,0.752,3.202,0.786,4.81
		c0.033,1.612-0.011,3.374-1.837,4.603c-1.074-1.56-2.126-3.086-3.28-4.761c-0.907,1.14-1.702,2.141-2.526,3.178
		c-2.009-1.414-1.972-3.631-2.612-5.725c-2.56,2.518-3.465,5.965-5.709,8.689c0-1.782,0-3.565,0-5.347
		c-0.179-0.057-0.358-0.113-0.537-0.169c-1.832,3.396-3.665,6.792-5.497,10.187c-0.1,0.023-0.2,0.046-0.301,0.069
		c-0.418-2.419-0.835-4.839-1.254-7.259c-0.13-0.067-0.261-0.135-0.392-0.203c-1.822,2.268-3.644,4.534-5.628,7.003
		c-0.754-1.441-1.406-2.686-2.138-4.084c-1.047,2.124-2.045,4.149-3.18,6.449c-0.289-1.262-0.503-2.198-0.78-3.405
		c-1.741,1.613-2.907,3.372-3.36,5.425c-0.386,1.752,1.797,4.02,3.593,4.076c7.815,0.245,15.547-0.494,23.221-1.951
		c8.559-1.625,17.132-3.169,25.674-4.875c2.583-0.517,5.052-1.589,7.626-2.173c4.922-1.117,9.327-3.484,13.841-5.562
		c7.713-3.549,15.332-7.302,23.014-10.919c5.031-2.37,10.353-2.827,15.82-2.225c2.861,0.315,5.741,0.477,8.59,0.868
		c1.22,0.167,2.428,0.644,3.565,1.151c6.03,2.69,12.022,5.467,18.061,8.14c1.716,0.76,3.533,1.299,5.319,1.896
		c4.295,1.437,8.629,2.766,12.887,4.305c1.979,0.715,3.629,0.705,5.215-0.784c0.76-0.714,1.664-1.277,2.352-2.178
		c-2.167,0.224-4.333,0.447-6.499,0.671c-0.043-0.135-0.088-0.272-0.132-0.408c0.737-0.669,1.475-1.337,2.21-2.007
		c-0.048-0.095-0.099-0.189-0.149-0.284c-3.047,0.608-6.093,1.214-9.14,1.821c-0.108-0.137-0.216-0.274-0.323-0.412
		c0.705-2.599,3.208-4.077,4.477-6.513c-3.386-0.162-6.078,1.165-8.493,3.22c-0.764,0.65-1.486,1.01-2.603-0.26
		c1.524-1.26,3.038-2.509,4.551-3.759c-0.106-0.072-0.213-0.143-0.321-0.215c-2.866,0.217-5.734,0.435-8.602,0.653
		c-0.046-0.154-0.095-0.307-0.142-0.46c1.665-1.762,4.208-2.731,5.087-5.323c-2.572,0.399-5.044,0.765-7.51,1.169
		c-2.763,0.454-3.583-0.037-4.273-2.724c-0.578-2.251-1.104-4.514-1.695-6.95c-2.171,1.411-1.687,4.519-4.072,5.592
		c1.52-3.21,3.042-6.42,4.562-9.63c0.136,0.011,0.272,0.022,0.408,0.033c0.2,1.148,0.348,2.309,0.611,3.442
		c0.537,2.315,1.076,4.632,1.729,6.915c0.508,1.777,1.038,2.04,2.886,1.794c3.288-0.438,6.61-0.737,9.802-2.712
		c-0.188,3.242-2.287,5.067-3.928,7.342c3.691,0.178,7.038-1.581,10.539-0.99c0.034,0.125,0.067,0.25,0.101,0.374
		c-1.593,0.674-3.186,1.348-4.778,2.021c0.055,0.101,0.109,0.201,0.163,0.301c1.646-0.467,3.271-1.162,4.95-1.337
		c1.635-0.17,3.496-0.551,5.052,1.118c-2.961,1.181-5.408,2.752-6.808,5.856c2.044-0.336,3.913-0.643,5.783-0.953
		c1.285-0.213,2.562-0.49,3.857-0.615c0.482-0.046,0.996,0.258,1.496,0.402c-0.012,0.114-0.025,0.228-0.039,0.342
		c-0.506,0.235-1.011,0.472-1.901,0.887c1.408,0.178,2.439,0.251,3.442,0.459c0.492,0.103,0.933,0.455,1.398,0.694
		c-0.252,0.446-0.423,0.979-0.776,1.324c-0.737,0.722-1.594,1.321-2.354,2.022c-0.33,0.303-0.544,0.73-0.812,1.101
		c0.387,0.185,0.756,0.443,1.163,0.542c7.943,1.925,15.905,3.777,23.836,5.755c8.801,2.196,17.527,4.699,26.372,6.687
		c4.98,1.119,10.112,1.847,15.21,2.087c9.709,0.458,19.445,0.655,29.167,0.533c5.8-0.073,10.605,1.701,14.953,5.379
		c2.626,2.221,5.141,4.538,7.06,7.371c0.698,1.03,1.393,1.369,2.501,1.741c11.394,3.827,21.097,9.78,25.591,21.694
		c2.489,6.597,2.954,13.493,2.149,20.479c-0.335,2.902-0.533,5.833-1.088,8.695c-0.705,3.649-1.783,7.226-2.562,10.864
		c-1.196,5.566-2.374,11.146-3.359,16.757c-0.464,2.644-0.636,5.369-0.638,8.058c-0.005,6.711-0.046,13.437,0.303,20.138
		c0.658,12.66,3.854,24.632,10.509,35.552c0.063,0.104,0.086,0.233,0.171,0.47c-0.794-0.217-1.503-0.413-2.483-0.68
		c0.6,1.011,1.062,1.791,1.523,2.572c-0.059,0.089-0.116,0.178-0.174,0.269c-0.416-0.143-0.852-0.243-1.244-0.433
		c-6.543-3.163-11.443-8.172-15.69-13.937c-4.598-6.244-7.387-13.205-8.609-20.845c-0.646-4.03-1.607-8.018-2.133-12.062
		c-0.67-5.161-0.293-10.33,0.481-15.474c0.681-4.535,1.199-9.094,1.936-13.616c0.505-3.098,1.037-6.225,1.954-9.22
		c1.494-4.874,3.291-9.657,4.999-14.468c1.606-4.522,1.492-9.208,1.305-13.887c-0.135-3.412-0.21-6.857-0.763-10.212
		c-0.627-3.795-2.968-6.579-6.377-8.407c-0.409-0.22-0.859-0.368-1.582-0.671c0.168,0.78,0.248,1.248,0.367,1.704
		c1.041,3.918,2.112,7.849,1.664,11.954c-0.364,3.345-0.487,6.798-1.463,9.976c-1.984,6.467-4.504,12.768-6.742,19.159
		c-3.074,8.788-6.187,17.563-7.7,26.803c-0.438,2.667-1.114,5.294-1.479,7.966c-0.271,1.991-0.223,4.023-0.298,6.037
		c-0.032,0.854,0.089,1.728-0.038,2.564c-0.946,6.272,0.021,12.378,1.609,18.419c0.228,0.864,0.844,1.659,1.389,2.404
		c0.902,1.233,1.937,2.37,2.836,3.602c1.46,1.998,1.487,4.175,0.599,6.406c-0.25,0.625-0.548,1.233-0.877,1.818
		c-4.918,8.75-7.782,18.227-9.812,27.978c-1.232,5.914-1.191,11.884-0.37,17.868c0.219,1.593,0.21,3.239,0.097,4.849
		c-0.116,1.681-1.004,2.428-2.678,2.337c-1.184-0.065-1.729,0.435-2.036,1.484c-0.82,2.797-1.734,5.57-2.493,8.385
		c-0.374,1.388-1.07,2.013-2.536,2.036c-5.136,0.085-10.27,0.271-15.405,0.372c-0.629,0.012-1.262-0.265-2.298-0.496
		c1.495-2.38,2.703-4.58,4.181-6.583c1.762-2.388,3.745-4.615,5.653-6.893c3.061-3.655,4.514-7.996,4.97-12.614
		c0.86-8.688,1.646-17.389,1.412-26.143c-0.098-3.72-1.096-6.91-3.854-9.707c-6.249-6.344-9.951-14.255-12.867-22.541
		c-1.293-3.681-2.243-7.484-3.499-11.181c-0.823-2.422-1.892-4.763-2.89-7.124c-1.032-2.443-2.131-4.861-3.169-7.303
		c-1.14-2.685-2.858-3.605-5.605-2.536c-4.81,1.868-9.548,3.918-14.304,5.929c-6.664,2.818-13.671,4.202-20.76,5.534
		c-10.18,1.914-20.353,1.362-30.548,0.934c-5.474-0.229-10.941-0.757-16.392-1.332c-4.111-0.436-8.164-1.307-12.344-1.072
		c-6.721,0.38-11.549,4.267-12.603,10.798c-0.4,2.48,0.026,5.107,0.183,7.659c0.281,4.583,0.783,9.152,0.908,13.737
		c0.058,2.168-0.699,4.349-0.809,6.541c-0.149,2.939-0.965,5.536-2.859,7.817c-0.368,0.443-0.527,1.161-0.565,1.762
		c-0.788,12.513-0.848,25.031-0.274,37.555c0.1,2.191,0.498,4.378,0.488,6.564c-0.012,2.643-0.509,5.146-3.536,6.176
		c-0.374,0.126-0.67,0.707-0.849,1.143c-0.734,1.786-1.445,3.581-2.094,5.4c-0.816,2.283-2.482,3.71-4.794,3.771
		c-5.924,0.162-11.857,0.056-18.152,0.056c1.12-1.353,2.041-2.474,2.972-3.586c2.745-3.282,5.574-6.496,8.221-9.856
		c3.07-3.9,4.095-8.409,3.6-13.329c-0.187-1.878-0.138-3.779-0.149-5.672c-0.041-6.487-0.001-12.977-0.109-19.465
		c-0.075-4.562-1.104-8.971-3.449-12.889c-2.277-3.805-2.969-7.885-3.289-12.192c-0.915-12.36-3.243-24.464-6.558-36.412
		c-1.328-4.787-3.655-8.85-6.899-12.493c-1.062-1.189-1.96-1.299-3.088-0.162c-1.554,1.564-2.969,3.266-4.485,4.869
		c-1.333,1.409-1.495,1.434-3.002,0.239c-1.493-1.185-2.913-2.457-4.426-3.746c-1.519,1.532-3.244,3.273-4.948,4.993
		c-1.103-0.618-2.027-1.139-3.262-1.832c0,1.259,0.006,2.089-0.003,2.92c-0.004,0.494,0.022,0.998-0.074,1.475
		c-0.062,0.306-0.268,0.652-0.517,0.822c-0.104,0.071-0.529-0.228-0.738-0.43c-1.22-1.178-2.417-2.374-3.785-3.728
		c0.131,1.604,0.248,3.013,0.363,4.422c-0.12,0.047-0.24,0.099-0.36,0.148c-2.091-1.892-4.183-3.784-6.276-5.674
		c-0.143,0.075-0.286,0.15-0.429,0.226c0.117,1.19,0.233,2.38,0.35,3.568c-0.119,0.079-0.238,0.156-0.357,0.237
		c-0.527-0.401-1.157-0.72-1.56-1.22c-1.099-1.368-2.094-2.819-3.144-4.227c-0.937-1.257-1.302-1.208-1.974,0.378
		c-2.837-2.723-3.25-6.514-4.653-10.236c-1.376,2.438-2.582,4.572-3.788,6.709c-0.172-0.033-0.345-0.062-0.518-0.095
		c-0.139-1.674-0.279-3.351-0.444-5.329c-1.268,2.137-1.167,4.754-3.752,6.165c0-2.811,0-5.277,0-7.742
		c-1.909,3.09-2.822,6.6-4.88,9.494c-0.139-0.062-0.278-0.121-0.417-0.18c-0.173-3.398-0.347-6.799-0.52-10.196
		c-0.155-0.004-0.311-0.006-0.466-0.01c-0.933,1.781-0.097,4.177-1.691,5.725c-0.186,0.01-0.371,0.02-0.557,0.029
		c-0.589-2.758-1.179-5.515-1.81-8.464c-2.518,3.243-3.154,7.479-6.715,10.206c0.168-2.572,1.427-4.774,0.377-7.295
		c-1.256,2.995-1.838,6.223-4.975,8.006c0.28-2.571,0.56-5.146,0.839-7.717c-0.189-0.04-0.379-0.079-0.569-0.119
		c-0.194,0.492-0.41,0.979-0.579,1.48c-0.821,2.422-1.438,4.937-2.515,7.237c-0.608,1.303-1.942,2.271-3.002,3.341
		c-0.192,0.193-0.636,0.141-1.192,0.241c0.44-2.086,0.888-3.954,1.217-5.84c0.328-1.882,0.604-3.791-0.169-5.771
		c-0.378,2.012-0.662,3.918-1.113,5.784c-0.336,1.39-0.832,2.749-1.377,4.073c-0.189,0.461-0.742,0.771-1.128,1.15
		c-0.175-0.419-0.472-0.826-0.504-1.253c-0.274-3.635-0.378-7.288-0.773-10.909c-0.44-4.043-1.13-8.062-1.712-12.094
		c-0.184-0.044-0.368-0.09-0.551-0.135c-0.409,0.581-1.013,1.106-1.191,1.751c-0.631,2.279-1.135,4.597-1.653,6.905
		c-0.304,1.355-0.458,2.746-0.827,4.082c-0.92,3.337-3.252,4.536-6.546,3.635c-0.874-0.239-1.958-0.213-2.812,0.081
		c-2.282,0.785-4.333,0.438-6.034-1.137c-1.643-1.525-3.506-2.303-5.676-2.488c-1.415-0.121-2.38-0.822-2.737-2.2
		c-0.573-2.204-1.079-4.434-1.618-6.653c-0.074-0.303-0.177-0.6-0.266-0.897C43.86,232.879,43.86,227.832,43.86,222.784z
		 M355.091,307.175c0.896,0.15,1.721,0.297,2.548,0.425c2.047,0.322,2.85-0.328,2.599-2.397c-0.119-0.975-0.604-1.965-1.135-2.814
		c-0.76-1.218-1.807-2.256-2.56-3.476c-0.767-1.241-1.523-2.552-1.937-3.936c-2.17-7.269-1.568-14.751-1.152-22.136
		c0.26-4.62,1.659-9.166,2.44-13.767c1.458-8.589,4.23-16.81,7.128-24.964c3.218-9.062,6.683-18.022,7.91-27.636
		c0.26-2.038,0.615-4.125,0.434-6.145c-0.578-6.416-3.329-12.092-6.479-17.589c-1.184-2.064-2.132-4.371-3.723-6.062
		c-2.197-2.336-4.91-4.183-7.385-6.259c-2.94-2.465-6.297-3.733-10.151-3.746c-6.218-0.019-12.437-0.005-18.649-0.17
		c-4.542-0.121-9.089-0.376-13.611-0.811c-4.327-0.417-8.691-0.845-12.92-1.794c-9.688-2.174-19.308-4.649-28.945-7.045
		c-4.221-1.049-8.398-2.283-12.629-3.294c-6.547-1.564-13.245-2.611-19.653-4.602c-8.912-2.767-17.496-6.496-25.959-10.463
		c-3.044-1.427-6.073-3.042-9.287-3.929c-5.574-1.539-11.306-1.432-16.997-0.352c-4.896,0.929-9.436,2.909-13.941,4.918
		c-6.645,2.963-13.201,6.128-19.823,9.145c-6.036,2.747-12.238,5.255-18.746,6.395c-9.858,1.725-19.578,4.293-29.607,5.051
		c-3.446,0.26-6.868,0.835-10.307,1.199c-2.73,0.289-5.47,0.471-8.205,0.709c-1.352,0.117-1.589,0.45-1.331,1.827
		c0.099,0.53,0.202,1.06,0.327,1.583c0.632,2.642-0.153,4.907-1.951,6.824c-2.808,2.993-8.95,2.9-11.753-0.117
		c-1.408-1.516-2.267-4.767-0.031-6.818c0.342-0.313,0.464-0.866,0.805-1.537c-0.764,0-1.318-0.166-1.689,0.026
		c-4.702,2.418-9.054,5.213-11.13,10.454c-0.658,1.662-0.561,2.018,1.218,2.072c3.056,0.091,6.117,0.083,9.176,0.1
		c1.351,0.007,2.705-0.086,4.053-0.024c1.379,0.062,2.085,0.837,2.244,2.051c-2.155,0-4.337,0.043-6.518-0.012
		c-2.56-0.063-5.119-0.184-7.676-0.329c-3.632-0.206-7.257-0.5-10.891-0.662c-1.249-0.055-1.678,0.6-1.451,1.832
		c0.403,2.19,1.554,3.911,3.371,5.178c2.614,1.822,5.55,2.869,8.706,2.897c4.083,0.037,8.12-0.317,11.203-3.599
		c0.73-0.779,1.655-1.39,2.543-2c1.232-0.844,1.732-0.677,2.444,0.547c-1.139,0.796-2.461,1.399-3.339,2.397
		c-2.014,2.287-4.441,3.799-7.344,4.53c-1.382,0.348-1.587,1.1-1.446,2.356c0.482,4.288,0.93,8.583,1.256,12.886
		c0.069,0.918-0.244,1.989-0.711,2.799c-0.873,1.514-1.963,2.905-3.016,4.309c-0.265,0.355-0.727,0.561-1.098,0.836
		c-0.136-0.129-0.273-0.258-0.409-0.387c0.804-1.312,1.532-2.678,2.431-3.92c0.983-1.359,1.729-2.788,1.592-4.476
		c-0.179-2.201-0.515-4.388-0.812-6.818c-2.204,1.719-4.193,2.8-6.316,0.33c-0.424,1.197-0.785,2.216-1.146,3.235
		c-0.979-4.177,1.399-7.295,3.288-10.642c-1.151-0.336-2.174-0.652-3.208-0.931c-1.982-0.535-2.108-0.494-2.962,1.422
		c-2.787,6.26-5.052,12.666-5.772,19.551c-0.397,3.795-1.209,7.553-1.494,11.352c-0.313,4.173-0.102,8.382-0.37,12.561
		c-0.245,3.833,0.362,7.541,1.227,11.21c0.186,0.789,1.166,1.752,1.953,1.949c1.018,0.255,2.104-0.539,2.259-1.664
		c0.229-1.658,0.245-3.364,0.156-5.041c-0.026-0.494-0.713-0.953-1.334-1.72c-0.258,1.026-0.293,1.6-0.549,2.042
		c-0.183,0.318-0.663,0.463-1.009,0.686c-0.179-0.315-0.5-0.624-0.511-0.946c-0.038-1.16,1.418-2.991,2.42-3.153
		c0.812-0.132,2.003,1.107,2.327,2.465c0.583,2.447,0.772,4.873-0.619,7.195c1.355,0.979,2.665,1.854,3.899,2.825
		c3.35,2.633,7.093-0.728,7.208-3.696c0.1-2.552,0.492-5.097,0.783-7.643c0.03-0.259,0.254-0.496,0.388-0.743
		c0.118,0.038,0.235,0.075,0.353,0.113c0,0.476,0.044,0.956-0.007,1.425c-0.34,3.127-0.698,6.253-1.055,9.372
		c-0.159,1.394,0.653,2.295,1.996,2.079c1.659-0.265,3.029-1.127,3.571-2.737c0.495-1.469,0.679-3.043,0.952-4.582
		c0.421-2.374,0.339-4.861,1.615-7.04c0.113-0.193,0.141-0.45,0.285-0.604c1.451-1.567,2.04-3.187,0.021-5.017
		c0.721-0.216,1.13-0.395,1.555-0.452c1.208-0.167,1.94-0.886,1.977-2.037c0.058-1.784,1.11-2.266,2.612-2.382
		c0.535-0.041,1.06-0.188,1.592-0.269c3.45-0.525,6.63-1.652,9.164-4.175c1.149-1.145,2.223-2.366,3.401-3.478
		c0.445-0.421,1.086-0.633,1.647-0.945c0.945,1.575-0.312,2.457-0.68,3.607c0.375,0.181,0.718,0.383,1.086,0.518
		c6.367,2.342,12.235,5.633,17.914,9.305c3.851,2.49,7.677,5.039,11.669,7.286c10.426,5.865,21.67,9.775,32.989,13.481
		c0.202,0.067,0.431,0.05,1.003,0.106c-1.375-1.205-2.511-2.202-3.646-3.198c0.101-0.143,0.2-0.282,0.301-0.425
		c1.53,0.272,2.814,1.146,4.059,2.036c1.243,0.888,2.399,1.899,3.609,2.837c1.2,0.931,2.42,1.832,3.632,2.747
		c-0.722-2.602-1.642-4.983-2.522-7.377c-0.096-0.261,0.035-0.604,0.06-0.911c0.267,0.168,0.657,0.274,0.78,0.516
		c0.831,1.641,1.775,3.25,2.363,4.976c1.677,4.928,3.141,9.928,4.798,14.861c3.71,11.046,5.931,22.381,6.901,33.984
		c0.466,5.57,1.502,10.991,4.004,16.114c1.201,2.461,2.026,5.229,2.398,7.942c0.565,4.132,0.707,8.334,0.817,12.514
		c0.205,7.792,0.261,15.586,0.371,23.383c0.031,2.175-0.797,3.991-2.221,5.63c-1.148,1.318-2.2,2.737-3.156,4.2
		c-0.249,0.382-0.204,1.281,0.085,1.629c2.057,2.479,4.342,4.636,7.598,5.574c1.329,0.382,1.9,0.125,2.297-1.114
		c0.866-2.708,1.792-5.398,2.737-8.228c-0.101-0.012,0.115,0,0.325,0.046c2.282,0.478,3.595-0.494,3.683-2.81
		c0.045-1.168-0.009-2.342-0.073-3.511c-0.282-5.165-0.807-10.326-0.827-15.491c-0.033-8.38,0.264-16.76,0.411-25.139
		c0.006-0.342-0.087-0.682-0.125-0.959c-1.25-0.146-2.375-0.278-3.5-0.411c-0.043-0.166-0.085-0.332-0.128-0.498
		c0.532-0.278,1.038-0.646,1.604-0.822c3.222-1.012,5.224-3.382,6.021-6.417c0.64-2.427,0.68-5.107,0.495-7.638
		c-0.372-5.11-1.114-10.19-1.634-15.288c-0.386-3.794-0.422-7.597,1.367-11.1c3.032-5.937,8.411-8.765,14.481-10.574
		c0.485-0.146,1.082,0.077,1.628,0.131c0.009,0.101,0.018,0.201,0.027,0.301c-2.16,0.899-4.319,1.799-6.726,2.801
		c0.426,0.146,0.542,0.222,0.651,0.216c0.265-0.019,0.527-0.085,0.792-0.107c2-0.166,4.016-0.571,5.996-0.44
		c5.021,0.33,10.028,0.909,15.04,1.372c1.792,0.166,3.637,0.071,5.373,0.462c8.335,1.878,16.799,1.434,25.166,0.982
		c9.856-0.529,19.414-2.943,28.582-6.776c5.725-2.392,11.557-4.524,17.37-6.782c-2.493-1.767-5.854-1.935-8.649-3.583
		c0.998-0.137,1.969-0.062,2.941,0.01c3.086,0.229,6.061,0.96,8.173,3.322c1.598,1.783,2.979,3.835,4.091,5.96
		c1.77,3.385,3.261,6.917,4.816,10.41c0.509,1.141,0.899,2.34,1.263,3.536c1.125,3.683,1.9,7.506,3.391,11.03
		c1.846,4.377,4.17,8.562,6.489,12.719c1.238,2.222,2.89,4.212,4.366,6.3c1.108,1.569,2.365,3.052,3.325,4.704
		c2.526,4.35,3.209,9.117,2.843,14.067c-0.489,6.644-0.9,13.293-1.547,19.92c-0.519,5.339-1.766,10.463-5.843,14.416
		c-0.836,0.811-1.461,1.832-2.255,2.692c-0.828,0.897-0.702,1.611,0.303,2.177c2.655,1.492,5.295,3.026,8.014,4.396
		c1.452,0.733,1.768,0.469,2.273-1.16c0.852-2.743,1.715-5.481,2.552-8.231c0.331-1.087,0.979-1.608,2.163-1.603
		c2.14,0.012,2.595-0.514,2.264-2.564c-1.222-7.527-0.667-15.025,0.788-22.418c1.75-8.896,4.39-17.562,7.784-26.071
		C357.163,309.23,355.422,309.097,355.091,307.175z M159.386,253.516c-0.851-0.253-1.276-0.387-1.708-0.504
		c-16.416-4.472-31.904-10.938-46.031-20.596c-4.688-3.205-9.905-5.64-14.905-8.381c-1.213-0.666-2.58-1.055-3.784-1.732
		c-1.92-1.082-3.265-1.081-4.925,0.354c-1.947,1.684-4.162,2.814-6.651,3.411c-1.427,0.342-2.869,0.627-3.884,0.848
		c-0.792,1.337-1.274,2.571-2.114,3.467c-1.162,1.243-1.385,1.841-0.699,3.441c0.599,1.397,1.331,2.806,1.557,4.28
		c0.522,3.409,0.765,6.859,1.142,10.287c0.069,0.628,0.241,1.247,0.365,1.872c0.196-0.011,0.393-0.019,0.589-0.026
		c0.888-4.833,1.777-9.662,2.688-14.624c0.146,0.429,0.301,0.743,0.358,1.075c0.792,4.624,1.227,9.268,0.994,13.966
		c-0.04,0.793,0.131,1.594,0.205,2.389c0.178,0.016,0.356,0.031,0.534,0.045c1.34-4.23,2.68-8.454,4.019-12.683
		c0.111,0.023,0.223,0.043,0.334,0.065c0.506,1.822,1.013,3.639,1.521,5.453c0.15-0.021,0.3-0.041,0.45-0.062
		c0.441-1.679,0.882-3.36,1.375-5.242c1.637,2.146,0.843,5.183,3.327,6.775c1.112-3.814,2.207-7.572,3.398-11.662
		c1.623,3.15,1.161,6.584,2.84,9.724c0.466-1.396,0.805-2.414,1.192-3.576c2.462,2.912,1.486,6.719,3.195,10.026
		c1.241-3.373,2.347-6.373,3.453-9.372c0.119,0.006,0.238,0.012,0.356,0.018c0.482,1.615,0.963,3.229,1.444,4.846
		c0.104-0.003,0.208-0.005,0.313-0.007c0.662-1.552,1.324-3.095,1.986-4.645c0.623,1.257,0.983,2.523,1.229,3.811
		c0.167,0.874,0.483,1.03,1.28,0.635c2.041-1.01,2.425-0.779,3.091,1.405c0.585,1.916,1.29,3.796,2.007,5.883
		c1.929-1.295,2.59-0.112,3.207,1.266c0.328,0.735,0.769,1.423,1.172,2.125c0.29,0.504,0.603,0.994,0.907,1.49
		c0.098-0.038,0.196-0.077,0.293-0.114c0.142-0.949,0.284-1.898,0.446-2.974c2.232,1.374,4.345,2.675,6.524,4.015
		c0.228-0.871,0.413-1.581,0.628-2.405c1.436,1.104,2.735,2.105,4.129,3.177c0.18-0.675,0.413-1.143,0.41-1.609
		c-0.012-1.515,0.658-1.82,2.285-1.409c0.519,0.13,1.147,0.521,1.535,0.354c1.441-0.625,2.841-1.376,4.178-2.204
		c0.587-0.365,1.019-1.01,1.462-1.575c0.676-0.864,1.242-0.793,1.938,0.01c1.149,1.328,2.323,2.643,3.592,3.853
		c0.347,0.332,1.345,0.556,1.58,0.334C155.936,257.188,157.54,255.439,159.386,253.516z M391.05,319.747
		c0.139-0.122,0.276-0.241,0.413-0.363c-0.23-0.445-0.432-0.909-0.695-1.333c-1.501-2.399-3.223-4.683-4.491-7.197
		c-6.185-12.238-9.798-25.18-9.817-38.958c-0.011-7.422-0.002-14.883,0.696-22.262c0.741-7.846,2.323-15.616,3.504-23.429
		c0.276-1.833,0.411-3.689,0.611-5.535c-0.429,0.137-0.64,0.349-0.715,0.6c-1.36,4.596-2.858,9.16-4.022,13.804
		c-3.02,12.048-5.148,24.236-5.282,36.722c-0.097,9,1.216,17.756,4.453,26.143c3.026,7.838,7.283,14.94,13.639,20.609
		C389.857,319.01,390.479,319.35,391.05,319.747z M379.432,283.327c0.098,0.002,0.196,0.004,0.293,0.004
		c0.073-0.379,0.192-0.755,0.211-1.139c0.303-6.159,0.421-12.335,0.941-18.479c0.414-4.91,0.905-9.884,2.095-14.644
		c1.784-7.122,4.27-14.07,6.347-21.128c1.363-4.635,3.521-9.112,3.454-14.064c-0.047-3.59,0.005-7.282-0.816-10.731
		c-0.866-3.637-2.777-7.008-5.237-9.948c-0.083-0.097-0.282-0.095-0.649-0.207c0.191,0.606,0.276,1.038,0.462,1.421
		c1.953,4.058,3.071,8.335,3.341,12.824c0.254,4.242,0.127,8.46-1.261,12.535c-1.041,3.059-2.145,6.097-3.23,9.142
		c-0.215,0.6-0.479,1.185-0.72,1.777c-0.121-0.023-0.241-0.05-0.362-0.073c0-4.88,0.126-9.766-0.034-14.641
		c-0.162-4.895-0.932-9.706-3.033-14.203c0.284,4.673,0.667,9.33,0.99,13.99c0.392,5.639,0.003,11.25-0.791,16.831
		c-0.784,5.514-1.993,10.985-2.451,16.516c-0.83,10.064-0.687,20.163-0.051,30.249C379.014,280.687,379.26,282.005,379.432,283.327z
		 M82.647,133.613c-1.019,0.255-1.679,0.324-2.255,0.579c-3.988,1.77-6.396,5.12-8.592,8.677c-3.163,5.125-3.531,10.424-1.099,15.95
		c0.884,2.009,1.682,4.064,2.353,6.152c0.254,0.793,0.041,1.736,0.041,2.612c-0.17,0.016-0.342,0.031-0.513,0.046
		c-0.31-0.7-0.62-1.4-0.938-2.118c-1.885,1.352-2.213,2.322-1.424,4.012c1.127,2.413,4.266,3.776,6.835,2.971
		c3.384-1.062,5.454-3.8,4.742-6.686c-0.61-2.47-1.513-4.876-2.414-7.263c-3.053-8.087-2.354-15.756,2.395-23.023
		C82.079,135.063,82.243,134.513,82.647,133.613z M394.304,319.442c0.141-0.089,0.28-0.178,0.422-0.265
		c-0.354-0.741-0.661-1.512-1.074-2.22c-4.457-7.606-6.301-16.049-7.304-24.62c-0.813-6.959-0.9-14.01-1.173-21.025
		c-0.338-8.741,1.228-17.284,3.116-25.759c1.484-6.644,3.24-13.234,4.801-19.867c0.321-1.371,0.31-2.82,0.452-4.232
		c-0.129-0.019-0.258-0.037-0.386-0.055c-0.128,0.263-0.293,0.513-0.378,0.788c-2.295,7.458-4.712,14.88-6.838,22.386
		c-2.682,9.457-4.04,19.143-4.259,28.987c-0.142,6.4,0.006,12.76,1.141,19.096c1.529,8.527,5.047,16.256,9.123,23.782
		C392.545,317.539,393.508,318.446,394.304,319.442z M386.049,223.29c0.129,0.016,0.257,0.03,0.388,0.047
		c0.253-1.003,0.52-2.002,0.762-3.008c1.385-5.733,2.164-11.494,0.637-17.33c-0.99-3.783-2.148-7.5-4.332-10.818
		c-3.484-5.291-8.938-7.595-14.542-9.668c-0.373-0.137-1.01-0.118-1.247,0.112c-0.205,0.202-0.116,0.835,0.009,1.226
		c0.751,2.345,2.214,4.078,4.51,5.055c5.301,2.253,8.276,6.802,10.563,11.627c3.014,6.354,3.779,13.257,3.261,20.28
		C385.996,221.634,386.049,222.464,386.049,223.29z M186.383,379.38c0.019-0.156,0.037-0.314,0.056-0.471
		c-3.163-1.052-5.64-3.091-8.052-5.25c-0.215-0.191-1.028-0.018-1.336,0.247c-1.43,1.235-2.792,2.55-4.15,3.866
		c-0.354,0.347-0.603,0.801-0.95,1.271c0.358,0.148,0.519,0.267,0.685,0.274c4,0.202,8.001,0.413,12.004,0.556
		C185.215,379.894,185.802,379.554,186.383,379.38z M326.857,372.634c0.09,0.184,0.179,0.365,0.27,0.547
		c4.227,0.275,8.446,0.88,12.718,0.129c-2.687-1.868-5.394-3.532-8.144-5.122c-0.321-0.186-1.083-0.128-1.301,0.117
		C329.162,369.696,328.028,371.181,326.857,372.634z M61.011,160.145c0.864,1.036,1.418,1.799,2.084,2.446
		c0.254,0.246,0.812,0.391,1.154,0.297c1.552-0.424,3.095-0.9,4.595-1.478c0.326-0.125,0.689-0.782,0.639-1.138
		c-0.208-1.505-3.084-3.805-4.842-3.921c0.439,0.881,0.907,1.694,1.26,2.556c0.612,1.49,0.081,2.16-1.498,1.912
		C63.394,160.66,62.397,160.423,61.011,160.145z M61.789,195.118c0.001-0.199,0.002-0.398,0.002-0.596
		c-0.614-0.41-1.21-1.088-1.85-1.133c-0.421-0.029-1.305,0.895-1.263,1.319c0.057,0.566,0.789,1.46,1.272,1.487
		C60.542,196.229,61.175,195.511,61.789,195.118z M62.005,189.416c-0.624,0.518-1.21,1.005-2.015,1.672c1.058,0,1.741,0,2.474,0
		C62.301,190.493,62.161,189.981,62.005,189.416z"/>
	<path fill="#FFFFFF" d="M152.837,107.586c2.133,0.905,4.253,1.844,6.403,2.707c2.639,1.06,4.589,2.848,6.222,5.171
		c2.011,2.862,3.744,5.81,4.514,9.254c0.086,0.389,0.232,0.813,0.15,1.177c-0.074,0.329-0.423,0.598-0.651,0.893
		c-0.263-0.24-0.666-0.434-0.762-0.729c-0.25-0.763-0.323-1.581-0.539-2.357c-1.597-5.738-4.932-10.114-10.24-12.898
		c-0.509-0.267-1.137-0.304-2.052-0.533c2.161,3.67,4.136,6.988,4.596,11.346c-2.838-4.02-7.115-5.389-11.035-7.936
		c0.949,4.977,3.424,8.988,5.488,13.286c-1.876,0.289-3.36-0.365-4.709-1.357c-2.285-1.681-3.671-4.002-4.703-6.611
		c-0.577-1.458-1.424-2.807-2.378-4.123c0.389,6.274,1.76,12.436,0.824,19.083c-3.249-3.601-3.844-7.851-4.787-11.958
		c-0.121,0.006-0.243,0.013-0.364,0.019c-0.071,1.723-0.209,3.445-0.196,5.167c0.015,1.844,0.207,3.688,0.255,5.532
		c0.048,1.77,0.011,3.54,0.011,5.31c-0.126,0.024-0.253,0.048-0.379,0.072c-0.158-0.375-0.349-0.741-0.466-1.129
		c-0.378-1.246-0.718-2.502-1.091-3.748c-0.254-0.848-0.2-1.573,0.248-2.416c0.462-0.871,0.713-1.933,0.766-2.925
		c0.164-3.141,0.163-6.29,0.301-9.433c0.022-0.489,0.434-0.961,0.666-1.441c0.182,0.015,0.364,0.028,0.547,0.043
		c0.495,2.254,0.931,4.525,1.502,6.759c0.559,2.188,0.656,4.542,2.452,6.41c-0.125-1.278-0.23-2.559-0.379-3.834
		c-0.582-5-1.196-9.995-1.735-15c-0.045-0.417,0.383-0.886,0.591-1.33c0.329,0.281,0.797,0.498,0.966,0.855
		c1.899,3.996,4.122,7.785,6.931,11.217c0.367,0.448,0.639,0.974,0.955,1.463c0.086-0.106,0.174-0.212,0.26-0.319
		c-1.58-4.321-3.161-8.643-4.774-13.057c1.628-0.478,2.294,0.499,3.157,1.056c2.443,1.58,4.916,3.113,7.385,4.651
		c0.133,0.083,0.341,0.043,0.836,0.092c-0.399-0.911-0.622-1.725-1.071-2.385c-1.214-1.782-2.528-3.496-3.792-5.243
		c-0.178-0.248-0.307-0.533-0.458-0.8C152.477,107.586,152.657,107.586,152.837,107.586z"/>
	<path fill="#FFFFFF" d="M184.105,128.793c0.109-1.171,0.08-2.378,0.355-3.509c0.648-2.649,0.206-5.166-0.71-7.962
		c-0.974,2.467-1.863,4.72-2.751,6.973c-0.118,0-0.235,0-0.353,0.001c-0.278-1.531-0.557-3.062-0.834-4.593
		c-0.144-0.028-0.289-0.056-0.433-0.083c-0.113,0.505-0.34,1.015-0.321,1.515c0.094,2.325-0.429,4.452-1.788,6.364
		c-0.465,0.654-0.873,1.351-1.308,2.028c-0.22-0.148-0.439-0.298-0.66-0.448c0.022-3.13-0.188-6.169-3.156-8.197
		c-0.34,0.708-0.667,1.391-0.994,2.073c-0.1-0.011-0.199-0.023-0.3-0.035c-0.62-2.624-1.241-5.249-1.861-7.873
		c3.005,3.132,6.495,5.854,7.494,10.639c1.81-3.082,0.986-6.53,2.372-9.911c1.006,1.437,1.782,2.545,2.61,3.728
		c1.593-1.455,1.082-3.605,2.151-5.495c0.81,1.893,1.973,3.72,2.329,5.694c0.354,1.968-0.101,4.083-0.201,6.131
		c0.141,0.064,0.284,0.128,0.425,0.192c2.06-1.778,4.12-3.556,6.18-5.334c0.143,0.077,0.286,0.154,0.429,0.231
		c0,1.037,0,2.073,0,3.445c0.834-0.513,1.339-0.865,1.881-1.147c2.577-1.344,5.148-2.702,7.765-3.966
		c0.402-0.194,1.257-0.108,1.49,0.181c0.256,0.318,0.219,1.12-0.01,1.537c-0.917,1.677-1.959,3.286-2.954,4.919
		c-0.124-0.07-0.248-0.14-0.371-0.209c0.966-1.808,1.931-3.614,3.062-5.729c-4.823,1.567-8.667,4.114-12.328,7.003
		c-0.105-0.087-0.209-0.173-0.314-0.26c0.384-1.276,0.769-2.552,1.152-3.828c-0.079-0.072-0.158-0.143-0.237-0.215
		c-0.499,0.318-1.056,0.572-1.485,0.966c-1.559,1.43-3.066,2.917-4.614,4.359c-0.402,0.375-0.882,0.666-1.326,0.996
		C184.361,128.913,184.233,128.853,184.105,128.793z"/>
	<path fill="#FFFFFF" d="M210.851,123.683c-1.383,2.556-2.713,5.164-5.597,6.277c-0.123-0.072-0.246-0.145-0.369-0.216
		c0.287-0.512,0.451-1.3,0.88-1.49c2.08-0.919,3.138-2.734,4.32-4.481c0.441-0.653,1.042-1.2,1.569-1.796
		c0.166,0.085,0.332,0.17,0.499,0.256c-0.312,1.703-0.625,3.406-0.937,5.11c-0.109-0.009-0.22-0.018-0.329-0.027
		c0.1-1.145,0.198-2.29,0.298-3.434C211.075,123.815,210.963,123.749,210.851,123.683z"/>
	<path fill="#FFFFFF" d="M198.699,128.984c0.593-0.854,1.114-1.607,1.716-2.474c0.253,1.933,0.315,1.987,2.088,1.341
		c1.291-0.47,2.554-1.016,3.884-1.55C205.352,128.519,200.982,130.085,198.699,128.984z"/>
	<path fill="#FFFFFF" d="M351.088,239.989c0.406-0.781,0.698-1.648,1.235-2.327c4.082-5.147,7.209-10.856,9.858-16.829
		c0.905-2.039,1.43-4.246,2.138-6.372c0.126-0.381,0.3-0.745,0.453-1.116c0.16,0.046,0.319,0.093,0.478,0.139
		c-0.438,2.118-0.708,4.289-1.347,6.345c-2.197,7.076-5.657,13.5-10.409,19.201c-0.479,0.573-1.179,0.963-1.777,1.439
		C351.507,240.31,351.298,240.149,351.088,239.989z"/>
	<path fill="#FFFFFF" d="M292.888,260.72c0.941,0.788,0.639,1.471-0.371,1.863c-3.126,1.216-6.225,2.545-9.435,3.499
		c-5.928,1.764-11.924,3.294-17.896,4.9c-0.337,0.091-0.719,0.012-1.081,0.012c-0.028-0.176-0.06-0.352-0.089-0.525
		c1.102-0.392,2.187-0.844,3.311-1.16c4.872-1.376,9.813-2.538,14.619-4.116C285.637,263.979,289.163,262.263,292.888,260.72z"/>
	<path fill="#FFFFFF" d="M347.402,344.988c-1.131-4.27,1.521-19.237,3.742-20.983C349.862,331.194,348.632,338.094,347.402,344.988z
		"/>
	<path fill="#FFFFFF" d="M159.356,237.862c-2.816-2.299-6.071-13.922-4.746-17.426C156.234,226.402,157.776,232.061,159.356,237.862
		z"/>
	<path fill="#FFFFFF" d="M143.769,227.636c0.822-5.013,1.644-10.025,2.468-15.047c1.373,0.355,1.887,1.024,1.617,2.178
		c-0.93,3.975-1.884,7.944-2.869,11.906c-0.107,0.428-0.478,0.789-0.727,1.183C144.096,227.782,143.932,227.709,143.769,227.636z"/>
	<path fill="#FFFFFF" d="M311.955,185.639c-0.972-2.521,0.061-6.968,1.812-8.454c1.559-1.322,3.852-1.571,5.698-0.472
		c-0.835,0.407-1.524,0.896-2.286,1.085c-2.017,0.5-3.073,1.876-3.727,3.706C312.982,182.825,312.5,184.141,311.955,185.639z"/>
	<path fill="#FFFFFF" d="M178.762,254.419c-0.742-3.532,3.219-8.043,6.702-7.776C185.03,248.232,181.206,252.693,178.762,254.419z"
		/>
	<path fill="#FFFFFF" d="M173.579,173.566c0.334-1.277,0.565-2.393,0.919-3.468c1.244-3.78,2.509-7.553,3.825-11.309
		c0.194-0.555,0.712-0.996,1.08-1.489c0.152,0.049,0.306,0.099,0.458,0.148c0.052,0.485,0.288,1.045,0.126,1.442
		c-1.966,4.806-3.991,9.589-6.006,14.375C173.951,173.335,173.844,173.372,173.579,173.566z"/>
	<path fill="#FFFFFF" d="M97.56,199.726c-2.289-2.283-4.312-4.742-4.945-7.967c-0.25-1.271-0.099-2.645,0.044-3.952
		c0.035-0.314,0.768-0.552,1.31-0.709C93.19,191.981,96.553,195.495,97.56,199.726z"/>
	<path fill="#FFFFFF" d="M348.327,312.542c-0.038,1.886-0.743,2.835-2.271,3.275c-1.475,0.427-2.372,0.091-3.3-1.336
		c-0.926-1.43-1.808-2.889-2.674-4.354c-0.206-0.35-0.271-0.784-0.401-1.178c0.117-0.079,0.233-0.158,0.351-0.237
		c0.702,0.763,1.407,1.522,2.104,2.289c0.333,0.366,0.651,0.743,0.977,1.115c1.774,2.032,2.288,2.117,4.545,0.749
		C347.838,312.756,348.042,312.681,348.327,312.542z"/>
	<path fill="#FFFFFF" d="M211.394,228.476c3.12,6.646,1.417,12.772-1.952,18.711C211.016,241.051,213.498,235.004,211.394,228.476z"
		/>
	<path fill="#FFFFFF" d="M141.094,226.164c-1.693-4.931,1.11-8.917,2.627-13.172C144.085,217.63,141.589,221.706,141.094,226.164z"
		/>
	<path fill="#FFFFFF" d="M347.501,269.186c1.123,3.669,1.38,7.375,0.467,11.129C346.47,276.672,346.328,272.961,347.501,269.186z"/>
	<path fill="#FFFFFF" d="M347.679,301.735c2.581,2.008,3.679,4.758,3.884,8.174c-0.309-0.245-0.542-0.351-0.652-0.53
		c-1.242-2.022-2.5-4.038-3.664-6.106c-0.214-0.381-0.029-0.986-0.029-1.488C347.369,301.767,347.523,301.751,347.679,301.735z"/>
	<path fill="#FFFFFF" d="M162.609,156.871c0.076-0.325,0.085-0.687,0.241-0.967c1-1.809,1.953-3.652,3.092-5.37
		c0.493-0.744,1.37-1.249,2.126-1.785c0.177-0.126,0.679-0.042,0.836,0.128c0.133,0.143,0.098,0.713-0.052,0.813
		c-2.615,1.762-3.702,4.712-5.555,7.063c-0.079,0.1-0.21,0.158-0.317,0.235C162.857,156.949,162.733,156.91,162.609,156.871z"/>
	<path fill="#FFFFFF" d="M53.511,227.334c-0.093-1.696-0.186-3.393-0.278-5.089c0.125-0.032,0.25-0.062,0.375-0.093
		c0.211,0.544,0.422,1.09,0.744,1.923c1.263-2.817,2.444-5.45,3.624-8.083c0.166,0.071,0.331,0.141,0.496,0.212
		c-1.482,3.73-2.964,7.46-4.445,11.191C53.853,227.376,53.682,227.356,53.511,227.334z"/>
	<path fill="#FFFFFF" d="M195.695,309.97c0.182,2.256-0.844,3.746-2.589,4.149c-1.923,0.447-3.912-0.894-4.85-3.492
		c1.162,1.399,2.477,1.89,3.98,1.94C193.903,312.627,194.787,311.528,195.695,309.97z"/>
	<path fill="#FFFFFF" d="M177.55,247.231c-0.336,2.456-2.724,4.084-4.761,3.268C174.02,248.856,175.512,247.779,177.55,247.231z"/>
	<path fill="#FFFFFF" d="M213.217,226.81c0.228,0.169,0.613,0.302,0.661,0.512c0.576,2.501,1.099,5.012,1.351,7.596
		c-1.017-1.084-1.027-2.495-1.37-3.784c-0.355-1.328-0.627-2.679-0.936-4.021C213.02,227.011,213.118,226.909,213.217,226.81z"/>
	<path fill="#FFFFFF" d="M194.205,336.376c-1.045-2.086-0.933-4.375,0.311-6.207C194.412,332.238,194.308,334.308,194.205,336.376z"
		/>
	<path fill="#FFFFFF" d="M214.651,171.333c0.254,2.247,0.732,4.391,0.509,6.548c-0.17,0.004-0.34,0.01-0.509,0.015
		C214.651,175.708,214.651,173.52,214.651,171.333z"/>
	<path fill="#FFFFFF" d="M166.77,156.476c-0.579-1.396-0.141-2.516,1.445-3.688C168.592,153.455,168.01,154.941,166.77,156.476z"/>
	<path fill="#FFFFFF" d="M366.238,206.665c-0.238,1.655,0.392,3.422-1.007,4.932c0.173-1.658,0.344-3.316,0.516-4.974
		C365.91,206.637,366.074,206.65,366.238,206.665z"/>
	<path fill="#FFFFFF" d="M95.521,182.159c-0.246,0.9-0.49,1.799-0.735,2.698c-0.149-0.043-0.298-0.086-0.446-0.13
		c-0.073-1.011-0.403-2.098,0.794-2.731C95.263,182.05,95.392,182.104,95.521,182.159z"/>
	<path fill="#FFFFFF" d="M212.42,179.6c0-1.177,0-2.354,0-3.531c0.104-0.006,0.208-0.011,0.31-0.017c0,1.184,0,2.367,0,3.551
		C212.627,179.602,212.524,179.601,212.42,179.6z"/>
</g>
</svg>
