<?xml version="1.0" encoding="utf-8"?>
<!-- Generator: Adobe Illustrator 16.0.0, SVG Export Plug-In . SVG Version: 6.00 Build 0)  -->
<!DOCTYPE svg PUBLIC "-//W3C//DTD SVG 1.1//EN" "http://www.w3.org/Graphics/SVG/1.1/DTD/svg11.dtd">
<svg version="1.1" id="Layer_1" xmlns="http://www.w3.org/2000/svg" xmlns:xlink="http://www.w3.org/1999/xlink" x="0px" y="0px"
	 width="91px" height="113px" viewBox="0 0 91 113" enable-background="new 0 0 91 113" xml:space="preserve">
<g>
	<rect x="37.832" y="60.915" fill="#FFFFFF" width="15.337" height="38.93"/>
	<g>
		<path fill="#FFFFFF" d="M34.293,20.615v-7.46C22.496,16.512,13.617,27.352,13.617,40.21c0,9.831,5.34,18.484,12.418,23.513v25.504
			h8.258V59.805c-3.539-1.066-5.438-2.679-7.463-4.702c-3.812-3.811-6.021-9.077-6.021-14.893
			C20.81,31.307,26.035,23.696,34.293,20.615z"/>
		<path fill="#FFFFFF" d="M56.707,20.615v-7.46c11.797,3.357,20.676,14.196,20.676,27.055c0,9.831-5.34,18.484-12.418,23.513v25.504
			h-8.258V59.805c3.539-1.066,5.718-2.679,7.741-4.702c3.812-3.811,5.881-9.077,5.881-14.893
			C70.33,31.307,64.965,23.696,56.707,20.615z"/>
	</g>
</g>
</svg>
